<svg id="Group_1" data-name="Group 1" xmlns="http://www.w3.org/2000/svg" width="74.823" height="50" viewBox="0 0 74.823 50">
  <path id="Path_1" data-name="Path 1" d="M363.884,103.713v7.831h-7.831v6.331h7.831v7.83h6.331v-7.83h7.83v-6.331h-7.83v-7.831Z" transform="translate(-303.222 -103.713)"/>
  <path id="Path_2" data-name="Path 2" d="M230.318,150.924h8.847a5.225,5.225,0,1,0,0-10.451h-8.847Zm0,17.54h10.572a5.225,5.225,0,1,0,0-10.451H230.318Zm10.572,7.089h-17.66V133.384h15.935A12.328,12.328,0,0,1,251.479,145.7c0,4.141-1.439,6.378-3.851,7.923,3.279,1.922,5.576,4.391,5.576,9.617a12.328,12.328,0,0,1-12.314,12.314" transform="translate(-205.458 -125.552)"/>
  <rect id="Rectangle_1" data-name="Rectangle 1" width="7.108" height="42.168" transform="translate(0 7.831)"/>
</svg>
